<svg width="8" height="16" viewBox="0 0 8 16" fill="none" xmlns="http://www.w3.org/2000/svg">
<path d="M7.70059 1.44671C7.70037 1.69527 7.60146 1.93357 7.42559 2.10922L2.63059 6.90422C2.48546 7.04931 2.37033 7.22158 2.29178 7.41118C2.21323 7.60078 2.1728 7.80399 2.1728 8.00922C2.1728 8.21444 2.21323 8.41766 2.29178 8.60726C2.37033 8.79685 2.48546 8.96912 2.63059 9.11422L7.41934 13.903C7.59012 14.0798 7.68461 14.3166 7.68248 14.5624C7.68034 14.8082 7.58174 15.0434 7.40792 15.2172C7.2341 15.391 6.99897 15.4896 6.75316 15.4917C6.50735 15.4939 6.27053 15.3994 6.09372 15.2286L1.30497 10.4436C0.66107 9.79843 0.299438 8.92416 0.299438 8.01265C0.299438 7.10115 0.66107 6.22688 1.30497 5.58172L6.09997 0.78359C6.23108 0.652392 6.39817 0.563035 6.58008 0.526827C6.76199 0.490618 6.95056 0.509184 7.12192 0.580176C7.29327 0.651168 7.43972 0.771396 7.54273 0.925645C7.64574 1.07989 7.70068 1.26123 7.70059 1.44671Z" fill="#212121"/>
</svg>
