<svg width="24" height="25" viewBox="0 0 24 25" fill="none" xmlns="http://www.w3.org/2000/svg">
<path d="M2.85714 3.89877L0.808 5.9479L0 5.13991L2.04914 3.09077L0 1.04164L0.808 0.233643L2.85714 2.28278L4.90629 0.233643L5.71429 1.04164L3.66514 3.09077L5.71429 5.13991L4.90629 5.9479L2.85714 3.89877ZM24 15.6621C24 18.3136 19.7829 23.4564 19.2914 24.0278C19.2388 24.0921 19.1725 24.1439 19.0974 24.1795C19.0223 24.2151 18.9402 24.2335 18.8571 24.2335C18.774 24.2335 18.692 24.2151 18.6169 24.1795C18.5418 24.1439 18.4755 24.0921 18.4229 24.0278C17.9314 23.4564 13.7143 18.3136 13.7143 15.6621C13.7143 14.2982 14.2561 12.9901 15.2206 12.0256C16.1851 11.0611 17.4932 10.5193 18.8571 10.5193C20.2211 10.5193 21.5292 11.0611 22.4937 12.0256C23.4582 12.9901 24 14.2982 24 15.6621ZM20.5714 15.6621C20.5714 15.3231 20.4709 14.9917 20.2825 14.7097C20.0942 14.4278 19.8264 14.2081 19.5132 14.0784C19.1999 13.9486 18.8552 13.9147 18.5227 13.9808C18.1902 14.047 17.8847 14.2102 17.645 14.45C17.4052 14.6897 17.2419 14.9952 17.1758 15.3277C17.1097 15.6602 17.1436 16.0049 17.2734 16.3182C17.4031 16.6314 17.6228 16.8991 17.9047 17.0875C18.1867 17.2759 18.5181 17.3764 18.8571 17.3764C19.0823 17.3767 19.3054 17.3326 19.5135 17.2465C19.7217 17.1605 19.9108 17.0342 20.07 16.875C20.2292 16.7157 20.3555 16.5267 20.4416 16.3185C20.5276 16.1104 20.5717 15.8874 20.5714 15.6621ZM3.42857 21.3764V7.09076H2.28571V21.3764C2.28662 22.1339 2.58793 22.8601 3.12355 23.3957C3.65918 23.9313 4.38537 24.2326 5.14286 24.2335H14.8571V23.0907H5.14286C4.68836 23.0902 4.25262 22.9094 3.93124 22.588C3.60986 22.2666 3.42909 21.8309 3.42857 21.3764Z" fill="white"/>
</svg>
