<svg width="96" height="96" viewBox="0 0 96 96" fill="none" xmlns="http://www.w3.org/2000/svg">
<path d="M48 7.51543C25.6512 7.51543 7.51543 25.6293 7.51543 48C7.51543 64.117 16.9618 77.963 30.5883 84.48L31.8501 60.0027C31.8501 60.0027 29.4583 59.2128 28.9536 58.9605C23.8958 56.7333 20.2203 50.1723 20.2203 41.6585C20.2203 32.3877 27.4066 24.3895 34.3845 24.3127H34.4174C41.3733 24.3895 48.5815 32.3877 48.5815 41.6585C48.5815 50.1723 44.9061 56.7333 39.8482 58.9605C39.8043 58.9714 36.9189 60.0247 36.9189 60.0247L38.3342 87.2448C41.4391 88.0018 44.6537 88.4626 48 88.4626C52.5093 88.4626 56.832 87.7056 60.8695 86.3342L62.1312 62.0763C58.8288 61.3413 56.0091 59.2457 54.2318 56.6016C52.0375 53.3321 55.9214 24.3127 55.9214 24.3127H58.4448V51.5438H60.9463V24.3237H63.6672V51.5547H66.1687V24.3237H68.9993V51.5547H71.5008V24.3237H73.4318C73.4318 24.3237 77.2937 53.3431 75.1214 56.6235C73.3659 59.2347 70.5792 61.3193 67.3097 62.0654C67.2549 62.0763 67.211 62.1093 67.211 62.1093L68.2971 82.9659C80.3547 75.9662 88.4846 62.9431 88.4846 47.989C88.4736 25.6293 70.3488 7.51543 48 7.51543ZM26.1339 37.5662C26.2766 36.9627 26.485 36.4032 26.485 36.3922C26.5399 36.1728 26.4302 35.9534 26.1888 35.8107C25.9694 35.6901 25.6841 35.7559 25.5525 35.9424C25.5525 35.9424 25.2782 36.3813 24.8613 37.0395C24.5431 37.5991 24.0494 38.4878 23.7312 39.6178C23.435 40.5833 23.0949 41.8889 22.9413 43.3591C22.8864 44.1271 22.8754 44.8073 22.8864 45.5095C22.9413 46.3323 23.0729 47.0126 23.3143 47.8025C24.1042 50.0736 24.7186 52.2569 26.9349 54.4073C27.6261 55.1205 28.3392 55.6251 28.8658 55.9762L29.0414 56.1079C29.1621 56.1737 29.2608 56.2505 29.3595 56.3163C29.7984 56.5358 30.0946 56.6235 30.1495 56.6345C30.3579 56.6894 30.5883 56.5906 30.6761 56.4151C30.7639 56.2286 30.6981 55.9982 30.5115 55.8446C30.5115 55.8446 30.2592 55.6251 29.941 55.2082C29.7216 54.9559 29.4693 54.6048 29.195 54.1989C29.0085 53.9026 28.7781 53.5845 28.5477 53.2663C27.4834 51.6315 26.8471 49.3385 26.0023 46.9797C25.8267 46.475 25.6951 45.8057 25.6402 45.2462C25.5854 44.5989 25.5305 43.9735 25.5305 43.403C25.5195 42.0535 25.5744 40.9015 25.6951 39.9579C25.8377 38.9157 25.9365 38.1257 26.1339 37.5662ZM48 0C21.5259 0 0 21.5259 0 48C0 74.4521 21.5259 96 48 96C74.4631 96 96 74.4521 96 48C96 21.5259 74.4631 0 48 0ZM48 92.4123C23.5118 92.4123 3.57669 72.4882 3.57669 48C3.57669 23.5118 23.5118 3.57669 48 3.57669C72.4882 3.57669 92.4123 23.5118 92.4123 48C92.4123 72.4882 72.4882 92.4123 48 92.4123Z" fill="#999999"/>
</svg>
