<svg width="29" height="27" viewBox="0 0 29 27" fill="none" xmlns="http://www.w3.org/2000/svg">
<path d="M14.712 2.14682C8.32394 2.14682 3.14013 7.12813 3.14013 13.2801C3.14013 17.7123 5.84023 21.5199 9.73514 23.3121L10.0958 16.5808C10.0958 16.5808 9.41213 16.3636 9.26787 16.2942C7.82218 15.6817 6.77162 13.8775 6.77162 11.5362C6.77162 8.98669 8.8257 6.78719 10.8202 6.76607H10.8296C12.8178 6.78719 14.8782 8.98669 14.8782 11.5362C14.8782 13.8775 13.8276 15.6817 12.3819 16.2942C12.3694 16.2972 11.5446 16.5869 11.5446 16.5869L11.9492 24.0724C12.8366 24.2806 13.7555 24.4073 14.712 24.4073C16.0009 24.4073 17.2364 24.1991 18.3905 23.822L18.7511 17.1511C17.8072 16.9489 17.0012 16.3727 16.4932 15.6455C15.866 14.7464 16.9762 6.76607 16.9762 6.76607H17.6974V14.2546H18.4124V6.76909H19.1902V14.2576H19.9052V6.76909H20.7143V14.2576H21.4293V6.76909H21.9812C21.9812 6.76909 23.0851 14.7494 22.4642 15.6516C21.9624 16.3696 21.1659 16.9429 20.2313 17.1481C20.2156 17.1511 20.2031 17.1601 20.2031 17.1601L20.5136 22.8957C23.96 20.9708 26.2838 17.3894 26.2838 13.2771C26.2807 7.12813 21.1 2.14682 14.712 2.14682ZM8.46192 10.4108C8.50269 10.2448 8.56227 10.091 8.56227 10.0879C8.57796 10.0276 8.5466 9.96726 8.4776 9.92804C8.41488 9.89485 8.33335 9.91296 8.29572 9.96425C8.29572 9.96425 8.21732 10.0849 8.09815 10.266C8.0072 10.4198 7.86608 10.6642 7.77514 10.975C7.69047 11.2405 7.59325 11.5995 7.54935 12.0038C7.53367 12.215 7.53053 12.4021 7.53367 12.5952C7.54935 12.8215 7.58698 13.0085 7.65597 13.2258C7.88176 13.8503 8.05738 14.4507 8.69085 15.0421C8.88842 15.2382 9.09226 15.377 9.24279 15.4736L9.29296 15.5098C9.32746 15.5279 9.35568 15.549 9.38391 15.5671C9.50935 15.6274 9.59402 15.6516 9.6097 15.6546C9.66928 15.6697 9.73514 15.6425 9.76023 15.5942C9.78532 15.5429 9.7665 15.4796 9.71319 15.4373C9.71319 15.4373 9.64106 15.377 9.55011 15.2624C9.48739 15.193 9.41527 15.0964 9.33687 14.9848C9.28356 14.9033 9.2177 14.8158 9.15184 14.7283C8.84765 14.2788 8.66576 13.6482 8.42429 12.9995C8.37412 12.8607 8.33648 12.6767 8.3208 12.5228C8.30512 12.3448 8.28944 12.1728 8.28944 12.0159C8.28631 11.6448 8.30199 11.328 8.33648 11.0685C8.37725 10.7819 8.40548 10.5647 8.46192 10.4108ZM14.712 0.0800781C7.1448 0.0800781 0.991974 5.99972 0.991974 13.2801C0.991974 20.5544 7.1448 26.4801 14.712 26.4801C22.276 26.4801 28.432 20.5544 28.432 13.2801C28.432 5.99972 22.276 0.0800781 14.712 0.0800781ZM14.712 25.4935C7.71242 25.4935 2.01431 20.0144 2.01431 13.2801C2.01431 6.54582 7.71242 1.06367 14.712 1.06367C21.7115 1.06367 27.4065 6.54582 27.4065 13.2801C27.4065 20.0144 21.7115 25.4935 14.712 25.4935Z" fill="#2B659D" fill-opacity="0.95"/>
</svg>
