<svg width="39" height="59" viewBox="0 0 39 59" fill="none" xmlns="http://www.w3.org/2000/svg">
<path d="M33.3554 6.24842C29.7697 2.8123 24.9833 0.919922 19.8778 0.919922C19.8204 0.919922 19.7622 0.920155 19.7107 0.920621C14.5615 0.920621 9.73666 2.80473 6.12483 6.22594C2.50019 9.65939 0.504028 14.2588 0.504028 19.1772C0.504028 28.9774 18.3433 56.6217 19.1027 57.7937C19.2343 57.9967 19.4638 58.1199 19.7107 58.1199C19.9575 58.1199 20.1871 57.9967 20.3186 57.7937C21.0782 56.6216 38.92 28.9772 38.92 19.1772C38.9202 14.2787 36.9439 9.68723 33.3554 6.24842ZM19.7108 56.0962C16.5257 51.07 1.94124 27.5935 1.94124 19.1772C1.94124 9.88117 9.9126 2.31841 19.7169 2.31841C19.7704 2.31806 19.8243 2.31771 19.8778 2.31771C29.5854 2.31771 37.4829 9.88094 37.4829 19.1772C37.4829 27.5924 22.8964 51.0699 19.7108 56.0962Z" fill="#5281AF"/>
</svg>
