<svg width="21" height="21" viewBox="0 0 21 21" fill="none" xmlns="http://www.w3.org/2000/svg">
<path fill-rule="evenodd" clip-rule="evenodd" d="M9.21046 3.82123C9.82232 3.56779 10.4956 3.50148 11.1451 3.63068C11.7947 3.75988 12.3913 4.07879 12.8596 4.54708C13.3279 5.01537 13.6468 5.61201 13.776 6.26155C13.9052 6.91109 13.8389 7.58436 13.5854 8.19621C13.332 8.80806 12.9028 9.33102 12.3522 9.69895C11.8015 10.0669 11.1541 10.2633 10.4919 10.2633C9.6038 10.2633 8.7521 9.91049 8.12414 9.28253C7.49618 8.65457 7.1434 7.80287 7.1434 6.9148C7.1434 6.25254 7.33978 5.60515 7.70772 5.0545C8.07565 4.50384 8.59861 4.07466 9.21046 3.82123ZM10.4919 4.90573C9.95903 4.90573 9.44801 5.1174 9.07123 5.49417C8.69446 5.87095 8.48279 6.38196 8.48279 6.9148C8.48279 7.31216 8.60062 7.7006 8.82138 8.03099C9.04214 8.36138 9.35591 8.61889 9.72303 8.77095C10.0901 8.92301 10.4941 8.9628 10.8838 8.88528C11.2735 8.80776 11.6315 8.61641 11.9125 8.33544C12.1935 8.05446 12.3848 7.69648 12.4623 7.30676C12.5399 6.91703 12.5001 6.51307 12.348 6.14596C12.196 5.77885 11.9384 5.46508 11.6081 5.24432C11.2777 5.02356 10.8892 4.90573 10.4919 4.90573Z" fill="#565656"/>
<path fill-rule="evenodd" clip-rule="evenodd" d="M5.59857 2.02687C6.89635 0.729086 8.65652 0 10.4919 0C12.3272 0 14.0874 0.729086 15.3852 2.02687C16.6828 3.32455 17.4119 5.08455 17.412 6.91974C17.411 7.47548 17.3433 8.02908 17.2105 8.56871L17.1612 8.76872L19.2348 9.45991L19.2378 9.46083C19.7426 9.6132 20.1849 9.92397 20.4993 10.3472C20.8137 10.7704 20.9835 11.2835 20.9837 11.8107V20.8978L14.0629 19.2126L6.90886 21L1.09677e-06 19.0259L1.01201e-06 10.4863C-0.000362694 10.0862 0.0973133 9.69217 0.284484 9.33859C0.471655 8.98501 0.742618 8.68268 1.07367 8.45805C1.40472 8.23342 1.78577 8.09334 2.18349 8.05005C2.58121 8.00676 2.98347 8.06159 3.35509 8.20975L3.71975 8.35512L3.65823 7.9674C3.60322 7.62071 3.5743 7.27037 3.5717 6.91934C3.57192 5.0843 4.30098 3.32446 5.59857 2.02687ZM6.54534 2.97453L6.70317 3.13236L6.54647 2.97341C7.59496 1.9398 9.0094 1.36239 10.4817 1.36696C11.954 1.37153 13.3648 1.9577 14.4069 2.99779C15.4489 4.03787 16.0377 5.4476 16.0451 6.91988C16.0524 8.39215 15.4777 9.80768 14.4461 10.8581L14.4445 10.8597L10.4919 14.7277L6.5462 10.8675L6.54534 10.8667C5.49882 9.82009 4.91089 8.40066 4.91089 6.92061C4.91089 5.44056 5.49882 4.02112 6.54534 2.97453ZM2.37685 9.37559C2.56515 9.36257 2.75364 9.39726 2.92488 9.47636L4.27923 9.96559L4.31922 10.0448C4.65095 10.7017 5.08487 11.3018 5.60478 11.8226L5.60569 11.8235L10.4919 16.6033L15.3854 11.817L15.3862 11.8163C15.8671 11.3359 16.2749 10.7876 16.5966 10.1889L16.6856 10.0232L18.8392 10.743C19.0702 10.8102 19.2734 10.9503 19.4183 11.1425C19.5643 11.336 19.6433 11.5718 19.6435 11.8142V19.1965L14.0642 17.8331L6.93417 19.6201L1.33939 18.0178V10.4873C1.33813 10.303 1.3831 10.1212 1.4702 9.95876C1.55741 9.79607 1.68406 9.65788 1.83855 9.55685C1.99947 9.45128 2.18484 9.38886 2.37685 9.37559Z" fill="#565656"/>
</svg>
