<svg width="23" height="23" viewBox="0 0 23 23" fill="none" xmlns="http://www.w3.org/2000/svg">
<path d="M21.9577 16.7225V19.8839C21.9589 20.1774 21.8988 20.4679 21.7812 20.7368C21.6637 21.0057 21.4912 21.247 21.275 21.4454C21.0587 21.6438 20.8034 21.7949 20.5254 21.8889C20.2474 21.9829 19.9528 22.0179 19.6605 21.9914C16.4178 21.6391 13.303 20.5311 10.5664 18.7563C8.02023 17.1384 5.86157 14.9798 4.24366 12.4336C2.46275 9.68454 1.35445 6.55458 1.00855 3.29735C0.98222 3.00594 1.01685 2.71225 1.11024 2.43496C1.20364 2.15767 1.35374 1.90287 1.551 1.68677C1.74827 1.47067 1.98836 1.29802 2.25601 1.1798C2.52366 1.06157 2.81299 1.00038 3.10558 1.0001H6.26692C6.77833 0.995069 7.27412 1.17617 7.66188 1.50964C8.04964 1.84311 8.30291 2.30621 8.37449 2.81261C8.50792 3.82431 8.75538 4.81767 9.11213 5.77374C9.25391 6.15091 9.2846 6.56082 9.20055 6.9549C9.11651 7.34898 8.92126 7.71071 8.63793 7.99722L7.29963 9.33552C8.79975 11.9737 10.9841 14.1581 13.6223 15.6582L14.9606 14.3199C15.2471 14.0366 15.6089 13.8413 16.0029 13.7573C16.397 13.6732 16.8069 13.7039 17.1841 13.8457C18.1402 14.2025 19.1335 14.4499 20.1452 14.5834C20.6571 14.6556 21.1246 14.9134 21.4588 15.3078C21.793 15.7022 21.9706 16.2057 21.9577 16.7225Z" stroke="#565656" stroke-width="1.5" stroke-linecap="round" stroke-linejoin="round"/>
</svg>
