<svg width="22" height="21" viewBox="0 0 22 21" fill="none" xmlns="http://www.w3.org/2000/svg">
<path d="M9.98185 6.63158V3.53684H11.3082V6.63158H9.98185Z" fill="#565656"/>
<path d="M9.98185 11.9368V8.84211H11.3082V11.9368H9.98185Z" fill="#565656"/>
<path d="M9.98185 17.2421V14.1474H11.3082V17.2421H9.98185Z" fill="#565656"/>
<path fill-rule="evenodd" clip-rule="evenodd" d="M5.94189 3.29086e-06H15.3499C15.9217 -7.49204e-05 16.4754 0.201402 16.9134 0.569028C17.3514 0.936653 17.6459 1.4469 17.745 2.01011L21.0461 20.7789H0.26309L3.54686 2.01217C3.64455 1.4482 3.93847 0.936924 4.37668 0.568711C4.81489 0.200499 5.36952 -0.000938986 5.94189 3.29086e-06ZM5.94189 1.32632L5.94099 1.32632C5.6816 1.32738 5.43085 1.41964 5.23262 1.58695C5.0344 1.75426 4.90134 1.98595 4.85672 2.24148L1.84127 19.4526H19.4666L16.4385 2.24031C16.3936 1.98427 16.2598 1.75227 16.0607 1.58511C15.8615 1.41793 15.6099 1.3263 15.3499 1.32632L5.94189 1.32632Z" fill="#565656"/>
<path d="M0.224411 21L0.26309 20.7789H0.0386825L0 21H0.224411Z" fill="#565656"/>
<path d="M21.085 21L21.0461 20.7789H21.2706L21.3095 21L21.085 21Z" fill="#565656"/>
</svg>
