<svg width="20" height="21" viewBox="0 0 20 21" fill="none" xmlns="http://www.w3.org/2000/svg">
<path d="M9.00943 5.78087C9.1569 5.6334 9.35691 5.55055 9.56546 5.55055C9.77401 5.55055 9.97402 5.6334 10.1215 5.78087C10.269 5.92833 10.3518 6.12834 10.3518 6.33689V9.24943L12.4347 11.3313C12.5078 11.4044 12.5657 11.4911 12.6053 11.5865C12.6448 11.6819 12.6652 11.7842 12.6652 11.8875C12.6652 11.9908 12.6448 12.0931 12.6053 12.1886C12.5657 12.284 12.5078 12.3707 12.4347 12.4437L12.37 12.5084C12.3131 12.5534 12.2502 12.5904 12.183 12.6183C12.0875 12.6578 11.9852 12.6782 11.8819 12.6782C11.7786 12.6782 11.6763 12.6578 11.5809 12.6183C11.4855 12.5788 11.3986 12.5207 11.3256 12.4476L9.01247 10.1345L9.01135 10.1333C8.93771 10.0602 8.87928 9.97323 8.83942 9.87741C8.79958 9.78162 8.77907 9.67858 8.77912 9.57477V6.33689C8.77912 6.12834 8.86196 5.92833 9.00943 5.78087Z" fill="#565656"/>
<path fill-rule="evenodd" clip-rule="evenodd" d="M5.89793 0.732583C7.06002 0.248972 8.30629 0 9.56499 0C10.8237 0 12.07 0.248972 13.2321 0.732583C14.3939 1.21611 15.4487 1.92465 16.3357 2.81742C18.1286 4.62609 19.1348 7.06953 19.1355 9.61625C19.1361 12.1589 18.1344 14.599 16.3479 16.4077L12.8352 19.6711L12.826 19.6801C11.9487 20.5308 10.7734 21.0046 9.55143 21C8.32942 20.9954 7.15771 20.5128 6.28689 19.6555L6.282 19.6506L2.82428 16.4444C1.02232 14.6387 0.00704384 12.1937 3.6514e-05 9.64238C-0.00698051 7.08753 0.997619 4.63379 2.79427 2.81741C3.68126 1.92464 4.73605 1.21611 5.89793 0.732583ZM9.56499 1.57264C8.51333 1.57264 7.47206 1.78076 6.50119 2.185C5.53032 2.58924 4.64898 3.18168 3.90808 3.92805C2.40789 5.44126 1.56596 7.48603 1.56596 9.61686C1.56596 11.7477 2.40768 13.7922 3.90788 15.3055L3.91448 15.3123L7.36292 18.5161C7.94518 19.0857 8.7256 19.4076 9.54033 19.414C10.3567 19.4204 11.1441 19.1089 11.7356 18.5464L15.1668 15.3636L15.1711 15.3677L15.2581 15.2789L15.3492 15.1944L15.3447 15.1894C16.7819 13.6813 17.5813 11.6744 17.5726 9.58833C17.5638 7.46581 16.719 5.43198 15.2216 3.92773C14.4807 3.18148 13.5996 2.58919 12.6288 2.185C11.6579 1.78076 10.6167 1.57264 9.56499 1.57264Z" fill="#565656"/>
</svg>
